<svg viewBox="0 0 24 22" xmlns="http://www.w3.org/2000/svg">
<path d="M22.005 12.9473L23.9747 4.0098C24.1169 3.3645 23.6413 2.75 22.9996 2.75H6.63367L6.25175 0.82457C6.15658 0.344652 5.74708 0 5.27204 0H1C0.447708 0 0 0.461699 0 1.03125V1.71875C0 2.2883 0.447708 2.75 1 2.75H3.91179L6.83879 17.507C6.13854 17.9223 5.66667 18.7009 5.66667 19.5938C5.66667 20.9227 6.71133 22 8 22C9.28867 22 10.3333 20.9227 10.3333 19.5938C10.3333 18.9203 10.0647 18.3118 9.63233 17.875H18.3676C17.9353 18.3118 17.6667 18.9203 17.6667 19.5938C17.6667 20.9227 18.7113 22 20 22C21.2887 22 22.3333 20.9227 22.3333 19.5938C22.3333 18.641 21.7963 17.8178 21.0175 17.4279L21.2474 16.3848C21.3896 15.7395 20.914 15.125 20.2723 15.125H9.08821L8.8155 13.75H21.0299C21.4968 13.75 21.9015 13.4168 22.005 12.9473Z"/>
</svg>
