<svg width="62" height="10" viewBox="0 0 62 10" fill="none" xmlns="http://www.w3.org/2000/svg">
<path d="M43.7905 0.757656C43.8873 0.496858 44.2561 0.496858 44.3529 0.757656L45.3519 3.44879C45.3939 3.56199 45.4997 3.63897 45.6204 3.64412L48.4812 3.76618C48.7585 3.77801 48.8724 4.12766 48.6553 4.30057L46.4106 6.08848C46.3165 6.16345 46.2762 6.28742 46.3084 6.40337L47.0771 9.17283C47.1514 9.44065 46.853 9.65682 46.6217 9.50275L44.238 7.91525C44.1373 7.84817 44.0061 7.84817 43.9054 7.91525L41.5217 9.50275C41.2904 9.65682 40.992 9.44065 41.0663 9.17283L41.835 6.40337C41.8672 6.28742 41.8269 6.16345 41.7328 6.08848L39.4881 4.30057C39.271 4.12766 39.3849 3.77801 39.6622 3.76618L42.523 3.64412C42.6437 3.63897 42.7495 3.56199 42.7915 3.44879L43.7905 0.757656Z" fill="#C8D3FA"/>
<path d="M30.8382 0.757656C30.9351 0.496858 31.3039 0.496858 31.4007 0.757656L32.3997 3.44879C32.4417 3.56199 32.5475 3.63897 32.6682 3.64412L35.529 3.76618C35.8063 3.77801 35.9202 4.12766 35.7031 4.30057L33.4584 6.08848C33.3643 6.16345 33.324 6.28742 33.3562 6.40337L34.1248 9.17283C34.1992 9.44065 33.9008 9.65682 33.6695 9.50275L31.2858 7.91525C31.1851 7.84817 31.0539 7.84817 30.9532 7.91525L28.5695 9.50275C28.3382 9.65682 28.0398 9.44065 28.1141 9.17283L28.8828 6.40337C28.9149 6.28742 28.8747 6.16345 28.7806 6.08848L26.5359 4.30057C26.3188 4.12766 26.4327 3.77801 26.71 3.76618L29.5708 3.64412C29.6915 3.63897 29.7972 3.56199 29.8393 3.44879L30.8382 0.757656Z" fill="#C8D3FA"/>
<path d="M17.886 0.757656C17.9828 0.496858 18.3517 0.496858 18.4485 0.757656L19.4475 3.44879C19.4895 3.56199 19.5953 3.63897 19.716 3.64412L22.5768 3.76618C22.8541 3.77801 22.968 4.12766 22.7509 4.30057L20.5062 6.08848C20.412 6.16345 20.3718 6.28742 20.404 6.40337L21.1726 9.17283C21.247 9.44065 20.9486 9.65682 20.7173 9.50275L18.3336 7.91525C18.2329 7.84817 18.1017 7.84817 18.001 7.91525L15.6173 9.50275C15.386 9.65682 15.0876 9.44065 15.1619 9.17283L15.9306 6.40337C15.9627 6.28742 15.9225 6.16345 15.8284 6.08848L13.5837 4.30057C13.3666 4.12766 13.4805 3.77801 13.7578 3.76618L16.6186 3.64412C16.7392 3.63897 16.845 3.56199 16.8871 3.44879L17.886 0.757656Z" fill="#C8D3FA"/>
<path d="M4.93382 0.757656C5.03063 0.496858 5.39951 0.496858 5.49632 0.757656L6.49529 3.44879C6.53731 3.56199 6.64311 3.63897 6.76375 3.64412L9.62457 3.76618C9.90186 3.77801 10.0158 4.12766 9.79869 4.30057L7.55396 6.08848C7.45984 6.16345 7.41962 6.28742 7.4518 6.40337L8.22042 9.17283C8.29475 9.44065 7.99639 9.65682 7.76506 9.50275L5.38136 7.91525C5.28065 7.84817 5.14949 7.84817 5.04878 7.91525L2.66508 9.50275C2.43375 9.65682 2.13539 9.44065 2.20972 9.17283L2.97834 6.40337C3.01052 6.28742 2.9703 6.16345 2.87617 6.08848L0.631449 4.30057C0.414355 4.12766 0.528279 3.77801 0.805567 3.76618L3.66639 3.64412C3.78703 3.63897 3.89283 3.56199 3.93485 3.44879L4.93382 0.757656Z" fill="#C8D3FA"/>
<path d="M56.2124 3.62279L57.0239 1.43676L57.8354 3.62279C57.9474 3.92467 58.2296 4.12993 58.5513 4.14366L60.8774 4.24291L59.0513 5.69738C58.8003 5.8973 58.693 6.22787 58.7788 6.53708L59.4038 8.78871L57.4674 7.49909L57.2048 7.89336L57.4674 7.49909C57.1988 7.32023 56.849 7.32022 56.5805 7.49909L54.6441 8.7887L55.269 6.53708C55.3548 6.22787 55.2475 5.8973 54.9965 5.69738L53.1704 4.24291L55.4965 4.14366C55.8183 4.12993 56.1004 3.92467 56.2124 3.62279L55.7584 3.45424L56.2124 3.62279ZM59.5475 9.30655C59.5474 9.30644 59.5474 9.30633 59.5474 9.30622L59.5475 9.30655ZM54.1968 9.0866C54.1969 9.08653 54.197 9.08647 54.1971 9.08641L54.1968 9.0866Z" stroke="#97A3B6"/>
</svg>
